<svg width="949" height="949" viewBox="0 0 949 949" fill="none" xmlns="http://www.w3.org/2000/svg">
    <g filter="url(#filter0_d_0_1)">
        <circle cx="474.5" cy="470.5" r="470.5" fill="#D9D9D9" />
    </g>
    <path
        d="M472.561 122.828C475.092 122.832 477.624 122.826 480.155 122.812C497.648 122.713 514.822 123.466 532.208 125.451C533.299 125.575 533.299 125.575 534.412 125.701C538.156 126.14 541.883 126.657 545.609 127.23C546.146 127.311 546.683 127.392 547.237 127.476C592.411 134.336 635.287 147.797 676.211 168.159C676.878 168.489 677.546 168.819 678.234 169.159C697.866 178.927 716.481 191.115 733.179 205.332C734.036 206.051 734.893 206.77 735.751 207.488C778.79 243.759 808.28 290.647 819.423 346.112C819.565 346.809 819.707 347.506 819.853 348.224C821.447 356.333 822.036 364.346 822.143 372.608C822.16 373.448 822.178 374.288 822.196 375.153C822.165 385.647 818.541 393.926 811.514 401.624C803.884 409.013 794.039 412.418 783.57 412.795C773.262 412.548 764.076 409.263 756.372 402.365C747.52 392.646 745.779 382.069 744.087 369.501C739.947 338.818 726.853 311.456 706.277 288.376C705.923 287.973 705.568 287.57 705.202 287.154C655.34 230.546 573.984 208.597 501.272 203.581C496.289 203.265 491.309 203.072 486.317 202.959C485.638 202.942 484.959 202.924 484.26 202.907C417.314 201.416 345.726 216.524 289.302 253.577C288.758 253.933 288.214 254.29 287.653 254.657C279.992 259.721 272.667 265.156 265.565 270.977C264.889 271.528 264.889 271.528 264.2 272.091C253.674 280.738 243.759 290.169 235.498 301.031C235.164 301.462 234.83 301.894 234.486 302.339C211.85 331.678 201.167 365.799 204.943 402.863C210.775 443.444 236.541 481.199 268.73 505.875C269.747 506.676 270.764 507.479 271.78 508.281C287.499 520.603 304.534 530.489 322.533 539.093C323.105 539.368 323.677 539.644 324.266 539.929C367.77 560.755 416.316 569.685 464.261 571.124C491.036 571.933 491.036 571.933 501.35 581.801C514.075 595.864 522.353 613.612 531.391 630.136C556.562 677.083 556.562 677.083 587.594 720.209C587.972 720.66 588.35 721.11 588.74 721.575C595.349 729.344 603.17 737.616 613.902 738.647C626.966 737.559 636.528 729.049 644.769 719.506C663.393 696.896 674.339 667.551 684.123 640.328C684.319 639.783 684.516 639.238 684.718 638.676C697.593 602.803 707.783 566.051 717.355 529.179C718.333 525.415 719.318 521.652 720.305 517.89C720.996 515.252 721.682 512.614 722.356 509.972C730.352 478.708 730.352 478.708 743.672 469.95C752.819 464.681 763.074 464.246 773.312 466.061C783.338 468.82 791.758 474.723 797.417 483.433C803.131 493.571 804.275 503.745 801.497 514.989C801.358 515.563 801.219 516.137 801.076 516.728C799.129 524.706 797.011 532.641 794.895 540.576C794.671 541.415 794.448 542.254 794.217 543.119C753.246 696.893 753.246 696.893 690.453 781.9C690.09 782.289 689.728 782.678 689.354 783.079C670.754 802.888 646.489 817.286 618.881 818.584C608.819 818.853 599.556 818.221 589.967 815.118C589.099 814.84 588.231 814.563 587.337 814.277C571.326 808.608 557.977 798.931 545.659 787.436C544.324 786.266 542.989 785.096 541.653 783.926C537.67 780.335 534.124 776.468 530.625 772.409C529.95 771.636 529.275 770.863 528.579 770.067C512.577 751.607 498.895 730.707 486.694 709.577C485.366 707.278 484.024 704.987 482.682 702.695C478.222 695.049 473.822 687.375 469.608 679.59C468.753 678.011 467.892 676.436 467.023 674.864C464.952 671.089 463.046 667.335 461.381 663.363C458.548 656.329 458.548 656.329 453.116 651.422C449.052 650.36 444.918 650.571 440.75 650.643C435.354 650.577 430.002 649.82 424.651 649.176C423.443 649.036 422.235 648.896 421.028 648.757C391.23 645.277 362.037 638.856 333.61 629.255C332.751 628.966 331.892 628.677 331.007 628.378C291.099 614.785 251.941 594.931 219.674 567.565C218.857 566.886 218.04 566.207 217.223 565.529C205.195 555.512 193.27 544.849 183.277 532.765C182.923 532.343 182.569 531.921 182.204 531.486C171.509 518.717 162.257 505.313 154.002 490.848C153.653 490.238 153.304 489.629 152.945 489.001C135.379 457.961 126.733 422.911 126.804 387.388C126.804 386.567 126.805 385.747 126.805 384.902C126.836 371.979 127.473 359.565 130.265 346.903C130.443 346.084 130.621 345.265 130.805 344.422C138.831 308.404 155.411 275.937 178.53 247.25C178.898 246.789 179.267 246.328 179.647 245.853C185.679 238.385 192.437 231.605 199.201 224.808C199.638 224.366 200.076 223.924 200.527 223.469C206.117 217.841 211.851 212.62 218.091 207.704C219.084 206.894 220.075 206.082 221.065 205.267C273.151 162.874 338.149 138.306 428.557 124.66C429.186 124.591 429.815 124.522 430.463 124.451C444.491 122.947 458.47 122.806 472.561 122.828Z"
        fill="#021730" />
    <path
        d="M622.952 360.942C632.402 367.69 638.402 376.559 640.606 388.03C641.96 400.107 639.355 410.707 631.902 420.457C625.883 427.663 617.685 433.189 608.163 434.045C595.517 434.825 586.337 432.144 576.544 423.893C569.25 417.128 565.125 407.754 564.46 397.892C564.218 384.985 567.771 374.966 576.566 365.292C589.06 353.32 608.497 352.009 622.952 360.942Z"
        fill="#3C9EFF" />
    <path
        d="M367.243 360.803C377.168 368.016 383.095 377.514 385.04 389.612C386.048 401.032 383.277 411.115 376.277 420.219C369.964 427.588 362.414 433.012 352.519 434.083C340.365 434.923 330.976 432.27 321.497 424.495C314.935 418.533 309.753 409.491 308.923 400.55C308.842 398.663 308.822 396.789 308.835 394.901C308.839 394.234 308.844 393.568 308.848 392.881C309.042 382.953 312.776 373.762 319.563 366.376C332.68 354.257 351.755 351.084 367.243 360.803Z"
        fill="#3C9EFF" />
    <path
        d="M474.35 355.257C475.392 355.267 475.392 355.267 476.456 355.277C481.831 355.417 486.286 356.184 491.064 358.767C492.183 359.371 492.183 359.371 493.324 359.987C498.221 362.874 501.933 366.064 505.307 370.63C505.671 371.108 506.035 371.585 506.41 372.076C512.632 381.02 513.53 391.714 512.428 402.266C510.28 413.169 503.932 422.127 494.987 428.471C485.951 434.175 475.175 435.471 464.762 433.39C453.894 429.705 445.764 422.794 440.525 412.647C438.245 407.978 436.907 403.491 436.47 398.312C436.415 397.741 436.36 397.17 436.303 396.582C435.773 385.505 439.879 375.611 446.904 367.269C454.491 359.252 463.361 355.123 474.35 355.257Z"
        fill="#3C9EFF" />
    <defs>
        <filter id="filter0_d_0_1" x="0" y="0" width="949" height="949" filterUnits="userSpaceOnUse"
            color-interpolation-filters="sRGB">
            <feFlood flood-opacity="0" result="BackgroundImageFix" />
            <feColorMatrix in="SourceAlpha" type="matrix" values="0 0 0 0 0 0 0 0 0 0 0 0 0 0 0 0 0 0 127 0"
                result="hardAlpha" />
            <feOffset dy="4" />
            <feGaussianBlur stdDeviation="2" />
            <feComposite in2="hardAlpha" operator="out" />
            <feColorMatrix type="matrix" values="0 0 0 0 0 0 0 0 0 0 0 0 0 0 0 0 0 0 0.25 0" />
            <feBlend mode="normal" in2="BackgroundImageFix" result="effect1_dropShadow_0_1" />
            <feBlend mode="normal" in="SourceGraphic" in2="effect1_dropShadow_0_1" result="shape" />
        </filter>
    </defs>
</svg>