<svg width="2072" height="528" viewBox="0 0 2072 528" fill="none" xmlns="http://www.w3.org/2000/svg">
    <g clip-path="url(#clip0_69_22)">
        <path
            d="M262.374 -0.189579C264.296 -0.186809 266.219 -0.190922 268.142 -0.201898C281.427 -0.276927 294.471 0.294438 307.675 1.80209C308.504 1.89641 308.504 1.89641 309.349 1.99264C312.193 2.32601 315.023 2.71863 317.853 3.15362C318.261 3.21526 318.669 3.27689 319.089 3.34038C353.399 8.55047 385.963 18.7736 417.044 34.2389C417.551 34.4895 418.058 34.7401 418.581 34.9983C433.491 42.4171 447.629 51.6737 460.311 62.471C460.962 63.0171 461.613 63.563 462.264 64.1088C494.952 91.656 517.349 127.267 525.812 169.393C525.92 169.922 526.028 170.451 526.139 170.996C527.35 177.155 527.797 183.241 527.878 189.515C527.891 190.153 527.905 190.791 527.919 191.449C527.895 199.419 525.143 205.706 519.805 211.553C514.011 217.165 506.534 219.751 498.583 220.038C490.754 219.85 483.777 217.355 477.926 212.116C471.203 204.734 469.881 196.701 468.595 187.156C465.451 163.853 455.506 143.072 439.879 125.543C439.61 125.236 439.34 124.93 439.063 124.614C401.193 81.621 339.404 64.9512 284.18 61.1412C280.395 60.9012 276.613 60.7545 272.821 60.669C272.306 60.6558 271.791 60.6427 271.26 60.6291C220.414 59.4974 166.044 70.9713 123.19 99.1127C122.777 99.3835 122.364 99.6543 121.939 99.9333C116.119 103.779 110.556 107.907 105.162 112.328C104.649 112.747 104.649 112.747 104.126 113.174C96.1313 119.741 88.6015 126.904 82.3272 135.154C82.0736 135.481 81.82 135.809 81.5588 136.147C64.367 158.429 56.2527 184.344 59.1208 212.494C63.5503 243.315 83.119 271.99 107.566 290.73C108.339 291.339 109.111 291.949 109.883 292.558C121.821 301.916 134.759 309.425 148.429 315.959C148.864 316.169 149.298 316.378 149.746 316.594C182.786 332.412 219.657 339.194 256.071 340.287C276.406 340.901 276.406 340.901 284.239 348.396C293.903 359.076 300.191 372.556 307.055 385.106C326.172 420.761 326.172 420.761 349.74 453.515C350.027 453.858 350.315 454.2 350.611 454.553C355.63 460.453 361.57 466.735 369.721 467.519C379.643 466.692 386.906 460.229 393.164 452.981C407.309 435.809 415.623 413.522 423.053 392.846C423.202 392.432 423.351 392.018 423.505 391.592C433.284 364.347 441.023 336.434 448.293 308.43C449.035 305.571 449.784 302.713 450.533 299.856C451.058 297.853 451.579 295.849 452.091 293.842C458.164 270.098 458.164 270.098 468.28 263.446C475.227 259.444 483.016 259.114 490.792 260.492C498.406 262.588 504.801 267.071 509.099 273.686C513.439 281.386 514.308 289.113 512.197 297.652C512.092 298.088 511.987 298.524 511.878 298.973C510.399 305.033 508.79 311.059 507.183 317.085C507.014 317.723 506.844 318.36 506.669 319.017C475.552 435.807 475.552 435.807 427.861 500.369C427.585 500.664 427.31 500.96 427.026 501.265C412.9 516.309 394.471 527.245 373.503 528.23C365.861 528.434 358.825 527.954 351.543 525.597C350.884 525.387 350.225 525.176 349.545 524.959C337.385 520.653 327.247 513.304 317.891 504.573C316.877 503.685 315.863 502.796 314.849 501.908C311.824 499.181 309.131 496.243 306.473 493.16C305.961 492.574 305.448 491.987 304.919 491.382C292.766 477.362 282.374 461.488 273.108 445.441C272.099 443.694 271.08 441.954 270.061 440.214C266.673 434.407 263.332 428.578 260.131 422.666C259.482 421.466 258.828 420.27 258.168 419.076C256.595 416.209 255.148 413.358 253.883 410.341C251.731 404.999 251.731 404.999 247.606 401.272C244.52 400.466 241.38 400.626 238.214 400.68C234.116 400.63 230.051 400.056 225.987 399.567C225.069 399.46 224.152 399.354 223.235 399.248C200.604 396.605 178.432 391.728 156.842 384.437C156.19 384.217 155.538 383.997 154.866 383.771C124.555 373.447 94.8152 358.367 70.3087 337.584C69.6886 337.068 69.0681 336.552 68.4472 336.037C59.3124 328.43 50.2551 320.331 42.666 311.154C42.3969 310.833 42.1278 310.512 41.8506 310.182C33.7281 300.484 26.701 290.304 20.4316 279.317C20.1667 278.855 19.9018 278.392 19.6288 277.915C6.28797 254.341 -0.278544 227.721 -0.225264 200.741C-0.224938 200.118 -0.224611 199.494 -0.224274 198.853C-0.20064 189.038 0.282929 179.61 2.4038 169.993C2.53897 169.371 2.67414 168.749 2.81341 168.108C8.90964 140.754 21.5016 116.095 39.0604 94.3072C39.3402 93.9571 39.6201 93.607 39.9084 93.2463C44.4897 87.5748 49.6228 82.4254 54.7597 77.2628C55.092 76.9274 55.4243 76.592 55.7667 76.2464C60.0123 71.9715 64.367 68.0064 69.1068 64.2731C69.8608 63.6575 70.6137 63.0406 71.365 62.4218C110.924 30.2252 160.29 11.5654 228.954 1.20141C229.431 1.14902 229.909 1.09664 230.401 1.04267C241.055 -0.0993165 251.672 -0.206266 262.374 -0.189579Z"
            fill="#EEEEEE" />
        <path
            d="M761.977 190.416C762.041 203.186 762.032 215.955 761.785 228.723C761.763 229.912 761.742 231.1 761.723 232.289C761.696 233.959 761.661 235.628 761.625 237.298C761.618 237.79 761.611 238.283 761.603 238.791C761.533 241.488 761.277 243.768 760.174 246.28C758.378 247.177 757.35 246.485 755.46 245.883C754.731 245.656 754.002 245.428 753.251 245.194C752.861 245.071 752.472 244.948 752.071 244.821C738.587 240.58 724.908 237.399 710.898 235.468C710.258 235.377 709.618 235.286 708.958 235.193C698.044 233.714 687.196 233.492 676.194 233.478C675.194 233.475 675.194 233.475 674.173 233.471C651.742 233.05 651.742 233.05 631.575 241.474C631.179 241.474 630.782 241.474 630.373 241.474C630.132 241.958 630.132 241.958 629.885 242.45C629.349 243.522 628.795 244.584 628.233 245.642C625.695 251.046 625.958 259.093 627.481 264.788C629.169 269.273 632.473 270.934 636.552 273.052C643.067 275.556 650.043 276.263 656.927 277.102C657.936 277.229 658.944 277.355 659.953 277.482C665.88 278.224 671.811 278.929 677.743 279.627C678.398 279.704 679.052 279.782 679.726 279.861C682.922 280.239 686.12 280.614 689.318 280.981C695.489 281.698 701.632 282.518 707.764 283.524C708.338 283.618 708.912 283.711 709.504 283.807C728.817 287.078 748.636 294.053 760.711 310.281C772.647 327.852 774.138 353.461 770.638 373.901C767.106 392.058 758.895 407.217 743.408 417.732C721.701 431.998 693.384 435.543 667.943 435.617C667.05 435.621 666.158 435.625 665.265 435.63C662.41 435.641 659.556 435.644 656.702 435.645C656.216 435.645 655.73 435.646 655.23 435.646C583.844 435.666 583.844 435.666 561.868 424.683C561.868 405.851 561.868 387.02 561.868 367.618C564.929 367.006 565.888 367.14 568.759 368.014C569.536 368.244 570.312 368.474 571.088 368.704C571.495 368.827 571.902 368.95 572.321 369.077C585.994 373.193 599.945 376.254 614.148 377.829C614.673 377.891 615.198 377.953 615.739 378.017C660.078 383.105 660.078 383.105 701.283 370.621C705.654 366.252 707.283 360.475 707.292 354.403C706.958 349.763 706.049 345.483 703.086 341.788C701.59 340.704 700.531 340.074 698.879 339.386C698.273 339.094 698.273 339.094 697.654 338.797C684.602 332.946 668.709 332.745 654.645 331.485C616.299 328.039 616.299 328.039 601.529 321.966C601.101 321.791 600.672 321.616 600.231 321.436C586.215 315.581 574.298 305.759 568.148 291.626C558.98 269.253 558.69 239.841 567.774 217.419C574.362 202.233 586.573 192.882 601.529 186.812C645.391 169.627 719.488 169.181 761.977 190.416Z"
            fill="#EEEEEE" />
        <path
            d="M1879.7 240.874C1900.92 240.874 1922.14 240.874 1944 240.874C1944.03 248.791 1944.06 256.709 1944.09 264.866C1944.11 269.889 1944.13 274.912 1944.16 279.936C1944.19 287.905 1944.23 295.873 1944.26 303.842C1944.28 309.647 1944.3 315.451 1944.33 321.256C1944.34 324.326 1944.36 327.397 1944.36 330.467C1944.37 333.364 1944.39 336.26 1944.4 339.157C1944.41 340.214 1944.41 341.271 1944.41 342.328C1944.38 358.635 1944.38 358.635 1951.21 373.024C1960.05 380.502 1974.04 379.507 1984.87 379.031C1991.06 378.496 1996.09 376.769 2000.94 372.911C2007.25 365.023 2007.37 355.442 2007.36 345.822C2007.36 344.673 2007.37 343.524 2007.38 342.375C2007.39 339.277 2007.4 336.18 2007.4 333.083C2007.41 329.838 2007.43 326.593 2007.44 323.348C2007.47 317.212 2007.48 311.077 2007.5 304.942C2007.52 296.645 2007.55 288.347 2007.58 280.05C2007.63 266.991 2007.67 253.932 2007.7 240.874C2028.92 240.874 2050.14 240.874 2072 240.874C2072 304.702 2072 368.531 2072 434.294C2051.97 434.294 2031.94 434.294 2011.31 434.294C2010.1 433.086 2010.22 430.824 2009.99 429.167C2009.92 428.714 2009.86 428.262 2009.79 427.796C2009.58 426.345 2009.37 424.895 2009.17 423.444C2009.02 422.463 2008.88 421.481 2008.74 420.5C2008.39 418.09 2008.04 415.68 2007.7 413.27C2007.22 413.937 2007.22 413.937 2006.73 414.617C2006.31 415.206 2005.89 415.794 2005.45 416.4C2005.03 416.981 2004.61 417.562 2004.18 418.16C1995.52 429.691 1981.03 434.823 1967.2 437.02C1960.85 437.906 1954.58 438.138 1948.17 438.123C1947.66 438.123 1947.15 438.123 1946.62 438.123C1938.35 438.102 1930.41 437.595 1922.37 435.495C1921.94 435.386 1921.52 435.276 1921.08 435.164C1907.98 431.656 1897.4 423.928 1890.48 412.191C1882.94 398.774 1879.58 383.19 1879.63 367.863C1879.63 367.315 1879.63 366.768 1879.63 366.204C1879.63 364.388 1879.63 362.572 1879.63 360.757C1879.63 359.448 1879.63 358.139 1879.63 356.83C1879.63 353.29 1879.64 349.75 1879.64 346.209C1879.65 342.505 1879.65 338.8 1879.65 335.096C1879.65 328.086 1879.65 321.077 1879.66 314.067C1879.67 304.591 1879.67 295.115 1879.67 285.639C1879.68 270.717 1879.69 255.796 1879.7 240.874Z"
            fill="#EEEEEE" />
        <path
            d="M1746.77 238.431C1772.66 237.889 1804.48 240.304 1824.42 258.894C1824.87 259.311 1824.87 259.311 1825.33 259.737C1839.25 272.778 1845.42 290.263 1848.45 308.751C1848.6 309.623 1848.6 309.623 1848.75 310.512C1851.81 329.459 1851.73 350.514 1848.45 369.42C1848.35 370.016 1848.25 370.612 1848.14 371.226C1844.46 391.592 1836.31 410.815 1818.85 423.098C1806.88 431.109 1792.85 434.697 1778.75 436.696C1777.64 436.857 1777.64 436.857 1776.51 437.022C1768.88 438.046 1761.26 438.101 1753.56 438.087C1751.39 438.085 1749.21 438.099 1747.03 438.115C1720.35 438.187 1692.85 433.639 1672.98 414.471C1672.63 414.131 1672.27 413.791 1671.91 413.441C1653.89 394.579 1651.07 364.076 1651.16 339.386C1651.16 338.77 1651.16 338.154 1651.17 337.519C1651.24 312.512 1654.24 285.61 1670.58 265.502C1670.98 264.998 1671.39 264.495 1671.81 263.977C1686.43 246.772 1710.33 241.197 1731.87 239.072C1736.83 238.67 1741.8 238.55 1746.77 238.431ZM1721.08 302.019C1712.79 311.021 1711.82 324.498 1711.85 336.129C1711.86 337.644 1711.84 339.157 1711.83 340.671C1711.78 352.257 1712.86 365.864 1721.06 374.826C1730.66 383.598 1744.28 383.701 1756.51 383.327C1765.01 382.895 1774.28 380.969 1780.55 374.826C1789.26 364.975 1789.92 350.795 1789.83 338.297C1789.82 337.77 1789.82 337.244 1789.82 336.702C1789.76 323.402 1788.53 310.622 1778.98 300.515C1765.46 287.783 1734.11 289.659 1721.08 302.019Z"
            fill="#EEEEEE" />
        <path
            d="M1196 251.198C1208.9 263.228 1213.38 281.249 1215.45 298.126C1215.56 299.006 1215.56 299.006 1215.68 299.903C1217.39 314.904 1216.96 330.134 1216.94 345.206C1216.94 348.264 1216.94 351.321 1216.94 354.379C1216.93 360.143 1216.93 365.908 1216.92 371.673C1216.91 379.481 1216.91 387.288 1216.91 395.096C1216.9 407.361 1216.89 419.626 1216.88 431.891C1195.66 431.891 1174.44 431.891 1152.58 431.891C1152.51 424.341 1152.45 416.792 1152.38 409.013C1152.33 404.217 1152.29 399.421 1152.24 394.625C1152.16 387.02 1152.09 379.416 1152.03 371.811C1151.98 366.271 1151.93 360.731 1151.87 355.191C1151.84 352.262 1151.81 349.333 1151.79 346.403C1151.77 343.637 1151.74 340.871 1151.71 338.106C1151.7 337.099 1151.69 336.092 1151.69 335.085C1151.63 324.054 1151.08 310.559 1142.97 302.143C1135.79 295.23 1125.84 295.309 1116.5 295.407C1110.26 295.564 1104.95 296.838 1099.7 300.341C1098.9 300.862 1098.9 300.862 1098.08 301.392C1089.27 309.969 1088.83 323.229 1088.65 334.771C1088.6 339.586 1088.58 344.401 1088.58 349.216C1088.57 352.13 1088.56 355.044 1088.54 357.958C1088.52 363.457 1088.5 368.956 1088.48 374.455C1088.46 381.899 1088.43 389.343 1088.4 396.788C1088.35 408.489 1088.32 420.19 1088.28 431.891C1067.06 431.891 1045.84 431.891 1023.98 431.891C1023.98 368.062 1023.98 304.234 1023.98 238.471C1044.21 238.471 1064.44 238.471 1085.28 238.471C1086.74 253.901 1086.74 253.901 1087.2 258.76C1087.32 260.033 1087.44 261.307 1087.56 262.58C1087.63 263.239 1087.69 263.899 1087.75 264.578C1087.84 265.528 1087.84 265.528 1087.94 266.498C1088.01 267.321 1088.01 267.321 1088.09 268.159C1088.28 269.699 1088.56 271.194 1088.88 272.71C1089.14 272.093 1089.39 271.476 1089.65 270.84C1095.29 257.421 1103.47 247.25 1117.17 241.336C1141.38 231.696 1175.92 233.279 1196 251.198Z"
            fill="#EEEEEE" />
        <path
            d="M787.216 238.471C810.814 238.471 834.413 238.471 858.726 238.471C865.273 255.922 871.093 273.569 876.587 291.375C876.972 292.621 877.358 293.867 877.744 295.112C882.4 310.143 886.662 325.264 890.145 340.615C890.47 342.047 890.801 343.478 891.133 344.909C894.946 361.472 894.946 361.472 894.782 365.816C895.179 365.816 895.575 365.816 895.984 365.816C896.04 365.043 896.097 364.27 896.155 363.474C896.641 358.665 897.671 353.95 898.65 349.222C898.807 348.46 898.807 348.46 898.967 347.683C905.855 314.414 915.899 281.925 927.457 249.997C927.705 249.312 927.705 249.312 927.958 248.613C930.582 241.385 930.582 241.385 932.039 238.471C954.845 238.471 977.65 238.471 1001.15 238.471C1000.47 242.525 1000.47 242.525 999.73 244.415C999.564 244.844 999.398 245.273 999.226 245.716C999.044 246.176 998.862 246.636 998.674 247.11C998.481 247.606 998.289 248.102 998.09 248.613C997.669 249.694 997.246 250.773 996.823 251.853C996.136 253.602 995.453 255.353 994.771 257.104C994.044 258.972 993.317 260.84 992.588 262.708C989.86 269.7 987.164 276.704 984.47 283.71C983.967 285.017 983.464 286.325 982.961 287.633C978.959 298.037 974.98 308.45 971.005 318.865C967.729 327.449 964.449 336.03 961.147 344.604C960.971 345.062 960.795 345.519 960.613 345.99C959.506 348.866 958.398 351.741 957.29 354.617C955.157 360.151 953.025 365.686 950.894 371.222C950.641 371.878 950.388 372.534 950.128 373.211C945.944 384.079 941.786 394.956 937.636 405.837C933.322 417.147 928.971 428.442 924.604 439.731C920.406 450.585 916.241 461.45 912.096 472.324C900.48 502.792 900.48 502.792 898.988 505.775C877.175 505.775 855.361 505.775 832.886 505.775C834.914 499.693 834.914 499.693 835.77 497.683C835.964 497.225 836.158 496.767 836.358 496.294C836.564 495.813 836.77 495.332 836.983 494.836C837.204 494.313 837.426 493.791 837.654 493.253C838.131 492.13 838.608 491.007 839.087 489.884C840.373 486.866 841.652 483.845 842.933 480.825C843.196 480.205 843.46 479.585 843.731 478.946C846.916 471.437 850.069 463.914 853.208 456.386C853.644 455.342 854.079 454.299 854.515 453.255C854.723 452.756 854.931 452.257 855.146 451.744C856.396 448.752 857.668 445.77 858.956 442.795C859.247 442.117 859.538 441.44 859.838 440.742C860.352 439.547 860.872 438.355 861.4 437.166C861.617 436.659 861.834 436.153 862.057 435.631C862.243 435.207 862.429 434.783 862.621 434.347C863.399 431.217 861.646 428.13 860.508 425.253C860.229 424.539 860.229 424.539 859.944 423.81C859.328 422.235 858.708 420.662 858.088 419.089C857.647 417.967 857.207 416.844 856.767 415.722C853.599 407.656 850.388 399.607 847.16 391.564C843.218 381.739 839.309 371.901 835.403 362.061C835.053 361.182 834.704 360.302 834.355 359.423C832.933 355.841 831.511 352.259 830.089 348.677C827.658 342.554 825.227 336.432 822.795 330.31C822.628 329.89 822.462 329.47 822.29 329.038C821.282 326.501 820.274 323.965 819.267 321.428C817.759 317.633 816.251 313.837 814.743 310.041C814.577 309.623 814.411 309.204 814.24 308.773C811.952 303.015 809.666 297.257 807.379 291.498C806.105 288.289 804.831 285.08 803.557 281.871C802.533 279.295 801.51 276.718 800.487 274.14C800.008 272.932 799.528 271.724 799.048 270.516C798.429 268.958 797.811 267.399 797.193 265.84C795.768 262.246 794.334 258.656 792.876 255.074C792.195 253.4 791.517 251.726 790.839 250.051C790.516 249.256 790.191 248.461 789.865 247.668C789.416 246.574 788.972 245.478 788.528 244.382C788.274 243.761 788.02 243.14 787.758 242.499C787.216 240.874 787.216 240.874 787.216 238.471Z"
            fill="#EEEEEE" />
        <path
            d="M1415.19 182.607C1438.19 182.607 1461.19 182.607 1484.89 182.607C1486.64 186.794 1488.37 190.957 1489.98 195.194C1490.16 195.678 1490.35 196.162 1490.54 196.661C1491.14 198.233 1491.73 199.806 1492.33 201.379C1492.75 202.494 1493.18 203.609 1493.6 204.724C1496.67 212.801 1499.71 220.891 1502.74 228.984C1505.19 235.54 1507.67 242.083 1510.21 248.607C1510.35 248.979 1510.5 249.351 1510.64 249.733C1511.23 251.23 1511.81 252.727 1512.39 254.224C1516.72 265.352 1521.01 276.489 1525.04 287.727C1525.3 288.44 1525.56 289.153 1525.82 289.888C1526.17 290.863 1526.17 290.863 1526.52 291.857C1526.72 292.425 1526.92 292.993 1527.13 293.579C1527.56 294.935 1527.56 294.935 1527.56 296.136C1528.15 296.136 1528.75 296.136 1529.36 296.136C1529.49 295.432 1529.63 294.727 1529.76 294.001C1530.71 289.76 1532.27 285.718 1533.76 281.645C1533.92 281.188 1534.09 280.732 1534.26 280.261C1539.64 265.458 1545.33 250.767 1551 236.068C1551.14 235.697 1551.28 235.325 1551.43 234.942C1554.95 225.792 1558.48 216.645 1562.02 207.501C1563.56 203.522 1565.1 199.542 1566.63 195.56C1567.14 194.244 1567.64 192.929 1568.15 191.614C1568.45 190.826 1568.76 190.038 1569.06 189.249C1569.46 188.211 1569.86 187.174 1570.26 186.136C1570.47 185.577 1570.69 185.018 1570.91 184.442C1571.43 183.208 1571.43 183.208 1572.03 182.607C1572.93 182.55 1573.84 182.534 1574.75 182.535C1575.63 182.534 1575.63 182.534 1576.53 182.533C1577.18 182.535 1577.83 182.537 1578.49 182.539C1579.51 182.539 1579.51 182.539 1580.56 182.539C1582.82 182.539 1585.08 182.544 1587.34 182.549C1588.9 182.55 1590.46 182.551 1592.02 182.551C1595.72 182.553 1599.42 182.558 1603.12 182.564C1607.33 182.571 1611.54 182.574 1615.75 182.577C1624.41 182.584 1633.07 182.594 1641.74 182.607C1641.35 185.655 1640.75 187.949 1639.38 190.705C1639.2 191.066 1639.02 191.428 1638.84 191.8C1638.46 192.577 1638.07 193.351 1637.68 194.125C1636.64 196.205 1635.62 198.294 1634.59 200.382C1634.39 200.806 1634.18 201.231 1633.96 201.669C1631.95 205.747 1630.04 209.864 1628.14 213.993C1625.61 219.475 1623.03 224.929 1620.4 230.362C1617.83 235.684 1615.3 241.024 1612.82 246.392C1609.63 253.284 1606.39 260.148 1603.13 267.003C1602.88 267.514 1602.64 268.025 1602.39 268.551C1602.15 269.063 1601.9 269.575 1601.65 270.103C1601.16 271.138 1600.67 272.172 1600.17 273.207C1599.93 273.72 1599.69 274.232 1599.43 274.76C1596.97 279.929 1594.53 285.103 1592.08 290.28C1591.77 290.942 1591.77 290.942 1591.45 291.617C1590.4 293.837 1589.36 296.057 1588.31 298.278C1586.4 302.32 1584.49 306.361 1582.58 310.403C1581.52 312.642 1580.47 314.881 1579.41 317.12C1579.2 317.564 1578.99 318.008 1578.77 318.466C1577.45 321.271 1576.12 324.076 1574.8 326.882C1573.89 328.8 1572.99 330.718 1572.08 332.636C1571.66 333.533 1571.23 334.43 1570.81 335.326C1570.42 336.145 1570.03 336.964 1569.65 337.783C1569.25 338.617 1568.86 339.453 1568.48 340.292C1567.49 342.443 1566.45 344.512 1565.22 346.54C1560.38 354.907 1560.44 363.23 1560.54 372.651C1560.56 374.826 1560.54 377.001 1560.53 379.176C1560.52 383.275 1560.53 387.374 1560.55 391.473C1560.58 397.026 1560.57 402.578 1560.56 408.131C1560.54 416.852 1560.58 425.572 1560.61 434.293C1539.39 434.293 1518.17 434.293 1496.31 434.293C1496.39 428.921 1496.48 423.549 1496.56 418.014C1496.59 414.559 1496.61 411.105 1496.63 407.65C1496.65 402.196 1496.68 396.743 1496.78 391.29C1497.16 371.111 1497.39 353.388 1486.28 335.696C1484.05 332.076 1482.35 328.178 1480.6 324.309C1479.65 322.214 1478.66 320.134 1477.68 318.052C1477.46 317.583 1477.24 317.115 1477.01 316.632C1474.75 311.825 1472.48 307.022 1470.21 302.218C1470 301.77 1469.78 301.322 1469.57 300.86C1468.49 298.591 1467.42 296.322 1466.35 294.053C1464.43 289.992 1462.51 285.931 1460.59 281.869C1459.53 279.617 1458.46 277.365 1457.4 275.113C1456.98 274.212 1456.55 273.311 1456.12 272.41C1455.91 271.963 1455.7 271.517 1455.49 271.058C1443.35 245.379 1443.35 245.379 1442.72 244.027C1442.29 243.126 1441.86 242.225 1441.44 241.324C1440.38 239.073 1439.31 236.822 1438.25 234.572C1435.89 229.578 1433.53 224.585 1431.17 219.593C1430.1 217.334 1429.03 215.074 1427.97 212.814C1427.55 211.927 1427.13 211.039 1426.71 210.152C1426.4 209.497 1426.4 209.497 1426.09 208.829C1424.81 206.108 1423.51 203.393 1422.21 200.68C1421.36 198.899 1420.51 197.115 1419.66 195.331C1419.26 194.491 1418.86 193.652 1418.45 192.814C1417.9 191.661 1417.35 190.505 1416.8 189.349C1416.33 188.371 1416.33 188.371 1415.85 187.373C1415.19 185.611 1415.19 185.611 1415.19 182.607Z"
            fill="#EEEEEE" />
        <path
            d="M1394.64 241.174C1395.22 241.288 1395.8 241.401 1396.4 241.519C1400.64 242.405 1404.41 243.689 1408.58 245.078C1408.77 262.721 1408.97 280.363 1409.18 298.539C1406.71 299.77 1406.45 299.882 1403.97 299.396C1403.41 299.292 1402.84 299.189 1402.26 299.083C1401.64 298.966 1401.03 298.848 1400.39 298.727C1386.07 296.267 1371.86 295.371 1357.35 295.348C1356.78 295.346 1356.22 295.344 1355.64 295.342C1343.96 295.317 1331.43 295.919 1321.44 302.744C1321.08 302.973 1320.72 303.202 1320.35 303.439C1315.35 307.1 1312.05 314.267 1310.62 320.164C1310.51 320.636 1310.4 321.108 1310.28 321.595C1307.18 335.71 1307.13 354.745 1314.94 367.277C1319.22 373.304 1326.5 375.302 1333.46 376.628C1355.31 380.246 1378.29 377.442 1400.1 375.037C1401.26 374.915 1402.41 374.793 1403.56 374.671C1404.1 374.609 1404.63 374.546 1405.19 374.482C1405.68 374.43 1406.18 374.379 1406.69 374.326C1407.13 374.277 1407.57 374.229 1408.02 374.179C1409.18 374.225 1409.18 374.225 1410.98 375.427C1411.15 377.115 1411.21 378.671 1411.18 380.36C1411.18 380.87 1411.18 381.38 1411.18 381.905C1411.18 383.596 1411.17 385.285 1411.16 386.976C1411.15 388.146 1411.15 389.316 1411.15 390.486C1411.14 393.569 1411.12 396.652 1411.1 399.735C1411.08 402.879 1411.08 406.024 1411.07 409.168C1411.05 415.341 1411.02 421.513 1410.98 427.686C1407.58 429.163 1404.37 430.184 1400.76 430.99C1400.19 431.119 1399.61 431.248 1399.01 431.381C1381.65 435.123 1363.8 435.716 1346.1 435.684C1344.38 435.682 1342.66 435.686 1340.94 435.697C1327.84 435.779 1315.02 435.246 1302.25 432.003C1301.62 431.848 1301 431.694 1300.36 431.534C1289.64 428.795 1280.04 424.739 1271.56 417.474C1271.21 417.207 1270.86 416.94 1270.49 416.665C1254.5 404.304 1249.67 381.592 1247.1 362.808C1246.77 360.211 1246.53 357.612 1246.33 355.003C1246.29 354.599 1246.26 354.196 1246.22 353.779C1244.08 327.203 1244.67 295.799 1258.34 272.109C1258.86 271.208 1258.86 271.208 1259.39 270.288C1268.86 254.732 1283.9 244.875 1301.38 240.477C1308.82 238.684 1316.22 237.329 1323.84 236.669C1324.55 236.602 1325.25 236.536 1325.97 236.467C1348.59 234.615 1372.39 236.804 1394.64 241.174Z"
            fill="#EEEEEE" />
        <path
            d="M376.594 180.655C383.772 185.78 388.329 192.517 390.002 201.229C391.03 210.401 389.052 218.452 383.392 225.857C378.82 231.329 372.594 235.526 365.362 236.176C355.757 236.769 348.785 234.733 341.348 228.466C335.808 223.328 332.675 216.209 332.17 208.718C331.986 198.916 334.684 191.307 341.365 183.959C350.854 174.866 365.615 173.871 376.594 180.655Z"
            fill="#EEEEEE" />
        <path
            d="M182.386 180.55C189.924 186.028 194.426 193.242 195.902 202.43C196.668 211.103 194.563 218.761 189.247 225.676C184.452 231.272 178.718 235.392 171.203 236.205C161.973 236.843 154.841 234.828 147.642 228.923C142.658 224.395 138.722 217.528 138.092 210.737C138.031 209.304 138.015 207.881 138.025 206.447C138.029 205.941 138.032 205.434 138.036 204.913C138.183 197.372 141.019 190.392 146.173 184.783C156.136 175.578 170.623 173.169 182.386 180.55Z"
            fill="#EEEEEE" />
        <path
            d="M263.733 176.338C264.524 176.345 264.524 176.345 265.332 176.353C269.415 176.459 272.798 177.042 276.427 179.003C277.277 179.462 277.277 179.462 278.143 179.93C281.863 182.123 284.682 184.545 287.244 188.014C287.521 188.376 287.797 188.738 288.082 189.112C292.807 195.904 293.489 204.027 292.652 212.041C291.021 220.321 286.2 227.125 279.406 231.943C272.543 236.275 264.36 237.26 256.451 235.679C248.196 232.88 242.022 227.631 238.043 219.925C236.312 216.379 235.295 212.971 234.963 209.038C234.921 208.604 234.88 208.17 234.836 207.724C234.434 199.311 237.552 191.796 242.888 185.461C248.65 179.372 255.387 176.236 263.733 176.338Z"
            fill="#EEEEEE" />
    </g>
    <defs>
        <clipPath id="clip0_69_22">
            <rect width="2072" height="528" fill="white" />
        </clipPath>
    </defs>
</svg>